<svg xmlns="http://www.w3.org/2000/svg" viewBox="0 0 1000 720" role="img" aria-labelledby="title" aria-describedby="desc" font-family="'Iowan Old Style','Palatino Linotype',Palatino,Georgia,'Times New Roman',serif">
  <title id="title">Van Motor suppression by Greep: L = L₀ · exp(−J)</title>
  <desc id="desc">Two graphs of the same law, L = L₀ · exp(−J), from Sections III and VIII.1 of the Speelgoed. Greep J is a node’s total resonant binding: the sum of its positive-Trouw bonds, weighted by Gewenning. L is the Van Motor coefficient, strictly positive for every node at every moment. Left, on a linear scale, L falls from L₀ toward zero and seems to touch it: at J = 6 it is still about 0.25% of L₀. Right, on a logarithmic scale, the same law is a straight line with no floor; zero is not on that axis at all. Doubling J squares L/L₀: exp(−4) = (exp(−2))². Suppressed, never abolished: Greep does not remove the fall; it postpones it.</desc>
  <defs>
    <filter id="glow" filterUnits="userSpaceOnUse" x="0" y="0" width="1000" height="720">
      <feGaussianBlur stdDeviation="2.4" result="blur"/>
      <feMerge><feMergeNode in="blur"/><feMergeNode in="SourceGraphic"/></feMerge>
    </filter>
    <radialGradient id="vignette" cx="50%" cy="42%" r="75%">
      <stop offset="0%" stop-color="#16130c"/>
      <stop offset="100%" stop-color="#0c0b09"/>
    </radialGradient>
    <marker id="arrowFaint" viewBox="0 0 10 10" refX="8" refY="5" markerWidth="7" markerHeight="7" orient="auto"><path d="M0,1 L9,5 L0,9 z" fill="#8d877c"/></marker>
    <marker id="arrowGold" viewBox="0 0 10 10" refX="8" refY="5" markerWidth="7" markerHeight="7" orient="auto"><path d="M0,1 L9,5 L0,9 z" fill="#f1d27c"/></marker>
    <marker id="arrowDim" viewBox="0 0 10 10" refX="8" refY="5" markerWidth="7" markerHeight="7" orient="auto"><path d="M0,1 L9,5 L0,9 z" fill="#cfcac0"/></marker>
  </defs>
  <rect width="1000" height="720" fill="url(#vignette)"/>
  <text x="500.0" y="56.0" font-size="32" fill="#f1d27c" text-anchor="middle">Van Motor suppression by Greep</text>
  <text x="500.0" y="86.0" font-size="13.5" fill="#8d877c" text-anchor="middle" letter-spacing="2.2">§III  ·  §VIII.1  ·  SUPPRESSED, NEVER ABOLISHED</text>
  <line x1="440.0" y1="102.0" x2="560.0" y2="102.0" stroke="#d4af37" stroke-width="1" opacity="0.45"/>
  <rect x="70.0" y="118.0" width="410.0" height="402.0" fill="none" stroke="#4a3f22" stroke-width="1"/>
  <text x="275.0" y="148.0" font-size="22" fill="#efebe2" text-anchor="middle">Linear scale</text>
  <text x="275.0" y="170.0" font-size="16" fill="#cfcac0" text-anchor="middle" font-style="italic">it sinks toward zero and seems to touch it</text>
  <line x1="136.0" y1="452.0" x2="456.0" y2="452.0" stroke="#26221b" stroke-width="1"/>
  <text x="124.0" y="457.0" font-size="15" fill="#8d877c" text-anchor="end">0</text>
  <line x1="136.0" y1="321.0" x2="456.0" y2="321.0" stroke="#26221b" stroke-width="1"/>
  <text x="124.0" y="326.0" font-size="15" fill="#8d877c" text-anchor="end">0.5</text>
  <line x1="136.0" y1="190.0" x2="456.0" y2="190.0" stroke="#26221b" stroke-width="1"/>
  <text x="124.0" y="195.0" font-size="15" fill="#8d877c" text-anchor="end">1</text>
  <text x="136.0" y="476.0" font-size="15" fill="#8d877c" text-anchor="middle">0</text>
  <text x="200.0" y="476.0" font-size="15" fill="#8d877c" text-anchor="middle">2</text>
  <text x="264.0" y="476.0" font-size="15" fill="#8d877c" text-anchor="middle">4</text>
  <text x="328.0" y="476.0" font-size="15" fill="#8d877c" text-anchor="middle">6</text>
  <text x="392.0" y="476.0" font-size="15" fill="#8d877c" text-anchor="middle">8</text>
  <text x="456.0" y="476.0" font-size="15" fill="#8d877c" text-anchor="middle">10</text>
  <line x1="136.0" y1="452.0" x2="136.0" y2="174.0" stroke="#8d877c" stroke-width="1.3" marker-end="url(#arrowFaint)"/>
  <line x1="136.0" y1="452.0" x2="470.0" y2="452.0" stroke="#8d877c" stroke-width="1.3" marker-end="url(#arrowFaint)"/>
  <text x="466.0" y="498.0" font-size="17" fill="#cfcac0" text-anchor="end">Greep <tspan font-style="italic">J</tspan></text>
  <text x="88.0" y="321.0" font-size="17" fill="#cfcac0" text-anchor="middle" transform="rotate(-90 88.0 321.0)"><tspan font-style="italic">L</tspan> / <tspan font-style="italic">L</tspan>₀</text>
  <path d="M136.0,190.0 L137.1,198.6 L138.1,207.0 L139.2,215.0 L140.3,222.8 L141.4,230.3 L142.4,237.6 L143.5,244.7 L144.6,251.5 L145.6,258.1 L146.7,264.5 L147.8,270.6 L148.8,276.6 L149.9,282.4 L151.0,288.0 L152.1,293.4 L153.1,298.6 L154.2,303.6 L155.3,308.5 L156.3,313.2 L157.4,317.8 L158.5,322.2 L159.5,326.5 L160.6,330.6 L161.7,334.6 L162.8,338.5 L163.8,342.2 L164.9,345.8 L166.0,349.3 L167.0,352.7 L168.1,355.9 L169.2,359.1 L170.2,362.2 L171.3,365.1 L172.4,368.0 L173.5,370.7 L174.5,373.4 L175.6,376.0 L176.7,378.5 L177.7,380.9 L178.8,383.2 L179.9,385.5 L180.9,387.7 L182.0,389.8 L183.1,391.9 L184.2,393.8 L185.2,395.7 L186.3,397.6 L187.4,399.4 L188.4,401.1 L189.5,402.8 L190.6,404.4 L191.7,406.0 L192.7,407.5 L193.8,409.0 L194.9,410.4 L195.9,411.7 L197.0,413.1 L198.1,414.3 L199.1,415.6 L200.2,416.8 L201.3,417.9 L202.4,419.1 L203.4,420.1 L204.5,421.2 L205.6,422.2 L206.6,423.2 L207.7,424.1 L208.8,425.0 L209.8,425.9 L210.9,426.8 L212.0,427.6 L213.1,428.4 L214.1,429.2 L215.2,429.9 L216.3,430.7 L217.3,431.4 L218.4,432.1 L219.5,432.7 L220.5,433.3 L221.6,434.0 L222.7,434.6 L223.8,435.1 L224.8,435.7 L225.9,436.2 L227.0,436.7 L228.0,437.2 L229.1,437.7 L230.2,438.2 L231.3,438.6 L232.3,439.1 L233.4,439.5 L234.5,439.9 L235.5,440.3 L236.6,440.7 L237.7,441.1 L238.7,441.4 L239.8,441.8 L240.9,442.1 L242.0,442.4 L243.0,442.8 L244.1,443.1 L245.2,443.4 L246.2,443.6 L247.3,443.9 L248.4,444.2 L249.4,444.4 L250.5,444.7 L251.6,444.9 L252.7,445.2 L253.7,445.4 L254.8,445.6 L255.9,445.8 L256.9,446.0 L258.0,446.2 L259.1,446.4 L260.1,446.6 L261.2,446.8 L262.3,446.9 L263.4,447.1 L264.4,447.3 L265.5,447.4 L266.6,447.6 L267.6,447.7 L268.7,447.9 L269.8,448.0 L270.8,448.1 L271.9,448.3 L273.0,448.4 L274.1,448.5 L275.1,448.6 L276.2,448.7 L277.3,448.8 L278.3,448.9 L279.4,449.0 L280.5,449.1 L281.6,449.2 L282.6,449.3 L283.7,449.4 L284.8,449.5 L285.8,449.6 L286.9,449.7 L288.0,449.7 L289.0,449.8 L290.1,449.9 L291.2,449.9 L292.3,450.0 L293.3,450.1 L294.4,450.1 L295.5,450.2 L296.5,450.3 L297.6,450.3 L298.7,450.4 L299.7,450.4 L300.8,450.5 L301.9,450.5 L303.0,450.6 L304.0,450.6 L305.1,450.7 L306.2,450.7 L307.2,450.8 L308.3,450.8 L309.4,450.8 L310.4,450.9 L311.5,450.9 L312.6,450.9 L313.7,451.0 L314.7,451.0 L315.8,451.0 L316.9,451.1 L317.9,451.1 L319.0,451.1 L320.1,451.2 L321.2,451.2 L322.2,451.2 L323.3,451.2 L324.4,451.3 L325.4,451.3 L326.5,451.3 L327.6,451.3 L328.6,451.4 L329.7,451.4 L330.8,451.4 L331.9,451.4 L332.9,451.4 L334.0,451.5 L335.1,451.5 L336.1,451.5 L337.2,451.5 L338.3,451.5 L339.3,451.5 L340.4,451.6 L341.5,451.6 L342.6,451.6 L343.6,451.6 L344.7,451.6 L345.8,451.6 L346.8,451.6 L347.9,451.7 L349.0,451.7 L350.0,451.7 L351.1,451.7 L352.2,451.7 L353.3,451.7 L354.3,451.7 L355.4,451.7 L356.5,451.7 L357.5,451.7 L358.6,451.8 L359.7,451.8 L360.7,451.8 L361.8,451.8 L362.9,451.8 L364.0,451.8 L365.0,451.8 L366.1,451.8 L367.2,451.8 L368.2,451.8 L369.3,451.8 L370.4,451.8 L371.5,451.8 L372.5,451.8 L373.6,451.8 L374.7,451.8 L375.7,451.9 L376.8,451.9 L377.9,451.9 L378.9,451.9 L380.0,451.9 L381.1,451.9 L382.2,451.9 L383.2,451.9 L384.3,451.9 L385.4,451.9 L386.4,451.9 L387.5,451.9 L388.6,451.9 L389.6,451.9 L390.7,451.9 L391.8,451.9 L392.9,451.9 L393.9,451.9 L395.0,451.9 L396.1,451.9 L397.1,451.9 L398.2,451.9 L399.3,451.9 L400.3,451.9 L401.4,451.9 L402.5,451.9 L403.6,451.9 L404.6,451.9 L405.7,451.9 L406.8,451.9 L407.8,451.9 L408.9,451.9 L410.0,451.9 L411.1,452.0 L412.1,452.0 L413.2,452.0 L414.3,452.0 L415.3,452.0 L416.4,452.0 L417.5,452.0 L418.5,452.0 L419.6,452.0 L420.7,452.0 L421.8,452.0 L422.8,452.0 L423.9,452.0 L425.0,452.0 L426.0,452.0 L427.1,452.0 L428.2,452.0 L429.2,452.0 L430.3,452.0 L431.4,452.0 L432.5,452.0 L433.5,452.0 L434.6,452.0 L435.7,452.0 L436.7,452.0 L437.8,452.0 L438.9,452.0 L439.9,452.0 L441.0,452.0 L442.1,452.0 L443.2,452.0 L444.2,452.0 L445.3,452.0 L446.4,452.0 L447.4,452.0 L448.5,452.0 L449.6,452.0 L450.6,452.0 L451.7,452.0 L452.8,452.0 L453.9,452.0 L454.9,452.0 L456.0,452.0" fill="none" stroke="#d4af37" stroke-width="3.5" stroke-linecap="round" stroke-linejoin="round" filter="url(#glow)"/>
  <circle cx="136.0" cy="190.0" r="5" fill="#f1d27c" filter="url(#glow)"/>
  <text x="150.0" y="196.0" font-size="16" fill="#f1d27c"><tspan font-style="italic">L</tspan> = <tspan font-style="italic">L</tspan>₀ at <tspan font-style="italic">J</tspan> = 0</text>
  <circle cx="328.0" cy="451.4" r="4.5" fill="#efebe2" filter="url(#glow)"/>
  <line x1="328.0" y1="441.4" x2="328.0" y2="365.7" stroke="#8d877c" stroke-width="1" stroke-dasharray="3 3"/>
  <text x="328.0" y="335.7" font-size="16" fill="#cfcac0" text-anchor="middle" font-style="italic">at <tspan font-style="italic">J</tspan> = 6, <tspan font-style="italic">L</tspan> is still</text>
  <text x="328.0" y="357.7" font-size="16" fill="#cfcac0" text-anchor="middle" font-style="italic">0.25% of <tspan font-style="italic">L</tspan>₀, not zero</text>
  <rect x="520.0" y="118.0" width="420.0" height="402.0" fill="none" stroke="#4a3f22" stroke-width="1"/>
  <text x="730.0" y="148.0" font-size="22" fill="#efebe2" text-anchor="middle">Log scale</text>
  <text x="730.0" y="170.0" font-size="16" fill="#cfcac0" text-anchor="middle" font-style="italic">the same law: a straight line with no floor</text>
  <line x1="590.0" y1="190.0" x2="914.0" y2="190.0" stroke="#26221b" stroke-width="1"/>
  <text x="578.0" y="195.0" font-size="15" fill="#8d877c" text-anchor="end">1</text>
  <line x1="590.0" y1="242.4" x2="914.0" y2="242.4" stroke="#26221b" stroke-width="1"/>
  <text x="578.0" y="247.4" font-size="15" fill="#8d877c" text-anchor="end">10⁻¹</text>
  <line x1="590.0" y1="294.8" x2="914.0" y2="294.8" stroke="#26221b" stroke-width="1"/>
  <text x="578.0" y="299.8" font-size="15" fill="#8d877c" text-anchor="end">10⁻²</text>
  <line x1="590.0" y1="347.2" x2="914.0" y2="347.2" stroke="#26221b" stroke-width="1"/>
  <text x="578.0" y="352.2" font-size="15" fill="#8d877c" text-anchor="end">10⁻³</text>
  <line x1="590.0" y1="399.6" x2="914.0" y2="399.6" stroke="#26221b" stroke-width="1"/>
  <text x="578.0" y="404.6" font-size="15" fill="#8d877c" text-anchor="end">10⁻⁴</text>
  <line x1="590.0" y1="452.0" x2="914.0" y2="452.0" stroke="#26221b" stroke-width="1"/>
  <text x="578.0" y="457.0" font-size="15" fill="#8d877c" text-anchor="end">10⁻⁵</text>
  <text x="590.0" y="476.0" font-size="15" fill="#8d877c" text-anchor="middle">0</text>
  <text x="654.8" y="476.0" font-size="15" fill="#8d877c" text-anchor="middle">2</text>
  <text x="719.6" y="476.0" font-size="15" fill="#8d877c" text-anchor="middle">4</text>
  <text x="784.4" y="476.0" font-size="15" fill="#8d877c" text-anchor="middle">6</text>
  <text x="849.2" y="476.0" font-size="15" fill="#8d877c" text-anchor="middle">8</text>
  <text x="914.0" y="476.0" font-size="15" fill="#8d877c" text-anchor="middle">10</text>
  <line x1="590.0" y1="458.0" x2="590.0" y2="174.0" stroke="#8d877c" stroke-width="1.3" marker-end="url(#arrowFaint)"/>
  <line x1="590.0" y1="458.0" x2="928.0" y2="458.0" stroke="#8d877c" stroke-width="1.3" marker-end="url(#arrowFaint)"/>
  <text x="924.0" y="498.0" font-size="17" fill="#cfcac0" text-anchor="end">Greep <tspan font-style="italic">J</tspan></text>
  <text x="538.0" y="321.0" font-size="17" fill="#cfcac0" text-anchor="middle" transform="rotate(-90 538.0 321.0)"><tspan font-style="italic">L</tspan> / <tspan font-style="italic">L</tspan>₀</text>
  <path d="M590.0,190.0 L914.0,417.6" fill="none" stroke="#d4af37" stroke-width="3.5" stroke-linecap="round" stroke-linejoin="round" filter="url(#glow)"/>
  <circle cx="654.8" cy="235.5" r="4.5" fill="#f1d27c" filter="url(#glow)"/>
  <circle cx="719.6" cy="281.0" r="4.5" fill="#f1d27c" filter="url(#glow)"/>
  <text x="666.8" y="225.5" font-size="15.5" fill="#f1d27c">e⁻² ≈ 0.135</text>
  <text x="731.6" y="271.0" font-size="15.5" fill="#f1d27c">e⁻⁴ = (e⁻²)² ≈ 0.0183</text>
  <text x="771.4" y="218.8" font-size="16" fill="#cfcac0" font-style="italic">double the grip,</text>
  <text x="771.4" y="238.8" font-size="16" fill="#cfcac0" font-style="italic">and <tspan font-style="italic">L</tspan>/<tspan font-style="italic">L</tspan>₀ is squared</text>
  <text x="607.8" y="402.2" font-size="16" fill="#cfcac0" font-style="italic"><tspan font-style="italic">L</tspan> = 0 is not on this axis;</text>
  <text x="607.8" y="422.2" font-size="16" fill="#cfcac0" font-style="italic">it lies infinitely far below</text>
  <line x1="598.1" y1="388.2" x2="598.1" y2="428.2" stroke="#8d877c" stroke-width="1.2" marker-end="url(#arrowFaint)"/>
  <text x="500.0" y="572.0" font-size="26" fill="#f1d27c" text-anchor="middle"><tspan font-style="italic">L</tspan> = <tspan font-style="italic">L</tspan>₀ · exp(−<tspan font-style="italic">J</tspan>)</text>
  <text x="500.0" y="616.0" font-size="16.5" fill="#cfcac0" text-anchor="middle">Greep (<tspan font-style="italic">J</tspan>): a node’s total resonant binding, the sum of its positive-Trouw bonds, weighted by Gewenning.</text>
  <text x="500.0" y="645.0" font-size="16.5" fill="#cfcac0" text-anchor="middle"><tspan font-style="italic">L</tspan>: the Van Motor coefficient, strictly positive for every node, on every spectrum, at every moment of its life.</text>
  <text x="500.0" y="674.0" font-size="16.5" fill="#d4af37" text-anchor="middle" font-style="italic">The Van Motor is never off. Greep does not remove the fall; it postpones it.</text>
</svg>
